HIERARCHY
ROOT joint_Root
{
	OFFSET 0.0 0.0 0.0
	CHANNELS 6 Xposition Yposition Zposition Zrotation Xrotation Yrotation 
	JOINT Hips
	{
		OFFSET -0.726466 93.3139 -2.00062
		CHANNELS 6 Xposition Yposition Zposition Zrotation Xrotation Yrotation 
		JOINT Spine
		{
			OFFSET 15.7357 0.0 0.0
			CHANNELS 6 Xposition Yposition Zposition Zrotation Xrotation Yrotation 
			JOINT Chest
			{
				OFFSET 8.98455 -0.406207 0.0
				CHANNELS 6 Xposition Yposition Zposition Zrotation Xrotation Yrotation 
				JOINT Neck
				{
					OFFSET 16.3773 0.0 0.0
					CHANNELS 6 Xposition Yposition Zposition Zrotation Xrotation Yrotation 
					JOINT Head
					{
						OFFSET 6.45672 0.0 0.0
						CHANNELS 6 Xposition Yposition Zposition Zrotation Xrotation Yrotation 
						End Site
						{
							OFFSET 0.0 0.0 0.0
						}
					}
				}
				JOINT Shoulder_L
				{
					OFFSET 12.9942 -0.242716 4.98039
					CHANNELS 6 Xposition Yposition Zposition Zrotation Xrotation Yrotation 
					JOINT UpperArm_L
					{
						OFFSET 5.34809 0.0 0.0
						CHANNELS 6 Xposition Yposition Zposition Zrotation Xrotation Yrotation 
						JOINT LowerArm_L
						{
							OFFSET 24.3286 1.87007e-05 0.0
							CHANNELS 6 Xposition Yposition Zposition Zrotation Xrotation Yrotation 
							JOINT Hand_L
							{
								OFFSET 22.2916 0.0 0.0
								CHANNELS 6 Xposition Yposition Zposition Zrotation Xrotation Yrotation 
								End Site
								{
									OFFSET 0.0 0.0 0.0
								}
							}
						}
					}
				}
				JOINT Shoulder_R
				{
					OFFSET 12.9945 -0.242716 -4.98039
					CHANNELS 6 Xposition Yposition Zposition Zrotation Xrotation Yrotation 
					JOINT UpperArm_R
					{
						OFFSET -5.34813 0.0 0.0
						CHANNELS 6 Xposition Yposition Zposition Zrotation Xrotation Yrotation 
						JOINT LowerArm_R
						{
							OFFSET -24.3289 0.000322201 0.0
							CHANNELS 6 Xposition Yposition Zposition Zrotation Xrotation Yrotation 
							JOINT Hand_R
							{
								OFFSET -22.2915 -0.000108084 0.0
								CHANNELS 6 Xposition Yposition Zposition Zrotation Xrotation Yrotation 
								End Site
								{
									OFFSET 0.0 0.0 0.0
								}
							}
						}
					}
				}
			}
		}
		JOINT UpperLeg_L
		{
			OFFSET -2.19248 -6.46944 0.0
			CHANNELS 6 Xposition Yposition Zposition Zrotation Xrotation Yrotation 
			JOINT LowerLeg_L
			{
				OFFSET 39.0811 0.0 -1.23785e-05
				CHANNELS 6 Xposition Yposition Zposition Zrotation Xrotation Yrotation 
				JOINT Foot_L
				{
					OFFSET 40.9854 0.0 -1.26872e-05
					CHANNELS 6 Xposition Yposition Zposition Zrotation Xrotation Yrotation 
					JOINT Toes_L
					{
						OFFSET 11.7543 0.0 0.0
						CHANNELS 6 Xposition Yposition Zposition Zrotation Xrotation Yrotation 
						End Site
						{
							OFFSET 0.0 0.0 0.0
						}
					}
				}
			}
		}
		JOINT UpperLeg_R
		{
			OFFSET -2.19251 6.46944 0.0
			CHANNELS 6 Xposition Yposition Zposition Zrotation Xrotation Yrotation 
			JOINT LowerLeg_R
			{
				OFFSET -39.0811 -0.00228153 -0.0401928
				CHANNELS 6 Xposition Yposition Zposition Zrotation Xrotation Yrotation 
				JOINT Foot_R
				{
					OFFSET -40.9854 0.0 0.0
					CHANNELS 6 Xposition Yposition Zposition Zrotation Xrotation Yrotation 
					JOINT Toes_R
					{
						OFFSET -11.7543 0.0 0.0
						CHANNELS 6 Xposition Yposition Zposition Zrotation Xrotation Yrotation 
						End Site
						{
							OFFSET 0.0 0.0 0.0
						}
					}
				}
			}
		}
	}
}
MOTION
Frames:	7
Frame Time:	0.0333333
0.000000 0.000000 0.000000 0.000000 0.000000 -0.000000 -2.305650 92.217000 -0.203545 88.805100 1.087960 4.931380 15.735700 0.000005 -0.000001 74.438500 85.716300 -72.432200 8.984550 -0.406207 -0.000000 0.533811 -2.424230 4.021340 16.377300 -0.000001 -0.000001 3.052450 -1.679150 -3.317130 6.456720 -0.000001 -0.000000 6.957150 -2.211050 -2.084090 12.994200 -0.242716 4.980390 -87.135700 -7.566160 -69.194000 5.348090 -0.000007 -0.000001 -84.812900 -29.276700 -95.762300 24.328600 0.000019 0.000005 1.535660 0.333154 -77.762800 22.291600 -0.000001 0.000005 19.309100 5.561400 -9.256340 12.994500 -0.242716 -4.980390 88.550000 4.691420 -72.803900 -5.348130 -0.000001 -0.000004 -64.768500 38.588200 -15.066800 -24.328900 0.000322 -0.000009 2.263610 8.434660 -15.088500 -22.291500 -0.000108 -0.000004 9.738190 5.394730 -2.766890 -2.192480 -6.469440 -0.000000 -174.608000 -7.860130 -1.464780 39.081100 -0.000007 -0.000012 -0.126068 0.306517 22.357100 40.985400 -0.000006 -0.000013 -0.972415 5.993550 -66.023800 11.754300 -0.000000 0.000003 -0.000050 -0.000564 -16.599400 -2.192510 6.469440 -0.000001 179.861000 15.429100 -178.820000 -39.081100 -0.002282 -0.040193 -0.069249 0.201464 19.809800 -40.985400 0.000008 0.000006 3.812320 7.507340 -66.674900 -11.754300 -0.000006 -0.000006 -0.008840 -0.094757 -20.432600
0.000000 0.000000 0.000000 0.000000 0.000000 -0.000000 -2.331260 92.219900 -0.229775 88.781900 1.038500 4.941070 15.735700 0.000005 -0.000001 74.944400 85.701300 -72.974700 8.984550 -0.406207 -0.000000 0.580651 -2.355960 3.949020 16.377300 -0.000001 -0.000001 3.080470 -1.664560 -3.315660 6.456720 -0.000001 -0.000000 6.968720 -2.220550 -1.982430 12.994200 -0.242716 4.980390 -87.117600 -7.580970 -69.110600 5.348090 -0.000007 -0.000001 -84.545200 -29.293000 -95.793300 24.328600 0.000019 0.000005 1.424620 0.307598 -77.818600 22.291600 -0.000001 0.000005 19.148900 5.561180 -9.245410 12.994500 -0.242716 -4.980390 88.553300 4.679560 -72.800000 -5.348130 -0.000001 -0.000004 -64.827500 38.497400 -14.936900 -24.328900 0.000322 -0.000009 2.273210 8.496920 -15.044500 -22.291500 -0.000108 -0.000004 9.830530 5.394070 -2.745910 -2.192480 -6.469440 -0.000000 -174.560000 -7.891510 -1.455870 39.081100 -0.000007 -0.000012 -0.126416 0.307467 22.350300 40.985400 -0.000006 -0.000013 -0.992525 5.997260 -66.010400 11.754300 -0.000000 0.000003 -0.000052 -0.000589 -16.600400 -2.192510 6.469440 -0.000001 179.910000 15.417300 -178.832000 -39.081100 -0.002282 -0.040193 -0.068389 0.199195 19.799000 -40.985400 0.000008 0.000006 3.884080 7.528930 -66.657100 -11.754300 -0.000006 -0.000006 -0.008775 -0.094246 -20.411700
0.000000 0.000000 0.000000 0.000000 0.000000 -0.000000 -2.355560 92.220500 -0.278911 88.783400 1.044140 4.939380 15.735700 0.000005 -0.000001 75.175600 85.688200 -73.244100 8.984550 -0.406207 -0.000000 0.613547 -2.326200 3.872930 16.377300 -0.000001 -0.000001 3.117530 -1.628790 -3.293000 6.456720 -0.000001 -0.000000 7.038270 -2.191130 -1.967190 12.994200 -0.242716 4.980390 -87.110100 -7.582920 -69.065700 5.348090 -0.000007 -0.000001 -84.189300 -29.362900 -95.707300 24.328600 0.000019 0.000005 1.667510 0.358946 -77.855400 22.291600 -0.000001 0.000005 19.134300 5.560030 -9.188480 12.994500 -0.242716 -4.980390 88.564900 4.647280 -72.818000 -5.348130 -0.000001 -0.000004 -64.861600 38.506600 -14.857000 -24.328900 0.000322 -0.000009 2.284150 8.602730 -14.937300 -22.291500 -0.000108 -0.000004 9.763870 5.392500 -2.695080 -2.192480 -6.469440 -0.000000 -174.552000 -7.914890 -1.518310 39.081100 -0.000007 -0.000012 -0.126228 0.306571 22.379200 40.985400 -0.000006 -0.000013 -1.001960 6.005980 -65.975800 11.754300 -0.000000 0.000003 -0.000044 -0.000507 -16.597300 -2.192510 6.469440 -0.000001 179.930000 15.417400 -178.880000 -39.081100 -0.002282 -0.040193 -0.069505 0.202118 19.815000 -40.985400 0.000008 0.000006 3.826240 7.528930 -66.620200 -11.754300 -0.000006 -0.000006 -0.008534 -0.092339 -20.333800
0.000000 0.000000 0.000000 0.000000 0.000000 -0.000000 -2.383570 92.226000 -0.320556 88.778900 1.069580 4.959380 15.735700 0.000005 -0.000001 75.368000 85.660200 -73.473800 8.984550 -0.406207 -0.000000 0.673901 -2.308970 3.799670 16.377300 -0.000001 -0.000001 3.200160 -1.581090 -3.335870 6.456720 -0.000001 -0.000000 7.015800 -2.130680 -1.927670 12.994200 -0.242716 4.980390 -87.088100 -7.592320 -68.944000 5.348090 -0.000007 -0.000001 -83.803700 -29.400100 -95.377600 24.328600 0.000019 0.000005 1.663040 0.351913 -78.055600 22.291600 -0.000001 0.000005 18.929000 5.558660 -9.122370 12.994500 -0.242716 -4.980390 88.559700 4.656290 -72.791200 -5.348130 -0.000001 -0.000004 -64.873300 38.535500 -14.803900 -24.328900 0.000322 -0.000009 2.277070 8.637800 -14.835800 -22.291500 -0.000108 -0.000004 9.670320 5.392390 -2.691970 -2.192480 -6.469440 -0.000000 -174.530000 -7.906260 -1.522230 39.081100 -0.000007 -0.000012 -0.125655 0.305472 22.359800 40.985400 -0.000006 -0.000013 -1.016610 6.028940 -65.931900 11.754300 -0.000000 0.000003 -0.000048 -0.000549 -16.598900 -2.192510 6.469440 -0.000001 179.956000 15.437600 -178.876000 -39.081100 -0.002282 -0.040193 -0.068807 0.200427 19.792500 -40.985400 0.000008 0.000006 3.858300 7.518630 -66.589500 -11.754300 -0.000006 -0.000006 -0.008574 -0.092652 -20.346600
0.000000 0.000000 0.000000 0.000000 0.000000 -0.000000 -2.409040 92.231100 -0.361490 88.761600 1.097480 4.929970 15.735700 0.000005 -0.000001 75.527600 85.646200 -73.663400 8.984550 -0.406207 -0.000000 0.706167 -2.290210 3.740060 16.377300 -0.000001 -0.000001 3.219860 -1.525230 -3.344780 6.456720 -0.000001 -0.000000 7.078100 -2.049610 -1.938010 12.994200 -0.242716 4.980390 -87.103100 -7.555890 -68.951200 5.348090 -0.000007 -0.000001 -83.175000 -29.658800 -94.436500 24.328600 0.000019 0.000005 1.497750 0.296925 -78.790300 22.291600 -0.000001 0.000005 18.752800 5.556200 -9.002310 12.994500 -0.242716 -4.980390 88.544600 4.701110 -72.776800 -5.348130 -0.000001 -0.000004 -64.942700 38.502900 -14.720100 -24.328900 0.000322 -0.000009 2.284850 8.750420 -14.702400 -22.291500 -0.000108 -0.000004 9.725190 5.395390 -2.788240 -2.192480 -6.469440 -0.000000 -174.508000 -7.879310 -1.595930 39.081100 -0.000007 -0.000012 -0.124910 0.303625 22.362200 40.985400 -0.000006 -0.000013 -1.034160 6.026080 -65.891200 11.754300 -0.000000 0.000003 -0.000045 -0.000515 -16.597600 -2.192510 6.469440 -0.000001 -179.973000 15.431000 -178.936000 -39.081100 -0.002282 -0.040193 -0.067081 0.195689 19.787100 -40.985400 0.000008 0.000006 3.982950 7.444990 -66.578400 -11.754300 -0.000006 -0.000006 -0.008805 -0.094478 -20.421200
0.000000 0.000000 0.000000 0.000000 0.000000 -0.000000 -2.436800 92.231800 -0.416700 88.777300 1.139090 4.934670 15.735700 0.000005 -0.000001 75.565500 85.614300 -73.748500 8.984550 -0.406207 -0.000000 0.768420 -2.296610 3.647010 16.377300 -0.000001 -0.000001 3.239350 -1.500580 -3.294920 6.456720 -0.000001 -0.000000 7.062720 -1.928500 -1.916950 12.994200 -0.242716 4.980390 -87.133700 -7.491770 -68.993100 5.348090 -0.000007 -0.000001 -82.036600 -30.090700 -92.525600 24.328600 0.000019 0.000005 0.977540 0.167134 -80.314600 22.291600 -0.000001 0.000005 18.738000 5.555530 -8.969930 12.994500 -0.242716 -4.980390 88.515500 4.794890 -72.774400 -5.348130 -0.000001 -0.000004 -65.009200 38.501600 -14.610400 -24.328900 0.000322 -0.000009 2.254400 8.662600 -14.654400 -22.291500 -0.000108 -0.000004 9.786330 5.395110 -2.779150 -2.192480 -6.469440 -0.000000 -174.514000 -7.844300 -1.638720 39.081100 -0.000007 -0.000012 -0.125220 0.304275 22.369000 40.985400 -0.000006 -0.000013 -1.046890 6.041340 -65.852200 11.754300 -0.000000 0.000003 -0.000046 -0.000529 -16.598100 -2.192510 6.469440 -0.000001 -179.984000 15.443800 -178.974000 -39.081100 -0.002282 -0.040193 -0.070643 0.205530 19.792600 -40.985400 0.000008 0.000006 3.817620 7.454870 -66.517400 -11.754300 -0.000006 -0.000006 -0.008655 -0.093297 -20.372900
0.000000 0.000000 0.000000 0.000000 0.000000 -0.000000 -2.455350 92.239800 -0.466697 88.770400 1.097990 4.910800 15.735700 0.000005 -0.000001 75.938800 85.585600 -74.150300 8.984550 -0.406207 -0.000000 0.836831 -2.252340 3.590910 16.377300 -0.000001 -0.000001 3.151550 -1.469710 -3.217780 6.456720 -0.000001 -0.000000 7.051790 -1.896570 -1.891750 12.994200 -0.242716 4.980390 -87.207700 -7.320130 -69.053500 5.348090 -0.000007 -0.000001 -80.011500 -30.545000 -89.200000 24.328600 0.000019 0.000005 -0.329442 -0.040687 -82.858100 22.291600 -0.000001 0.000005 19.099400 5.560920 -9.231540 12.994500 -0.242716 -4.980390 88.479100 4.882560 -72.675400 -5.348130 -0.000001 -0.000004 -65.038100 38.541800 -14.634200 -24.328900 0.000322 -0.000009 2.276620 8.760850 -14.635200 -22.291500 -0.000108 -0.000004 9.718510 5.393790 -2.736810 -2.192480 -6.469440 -0.000000 -174.494000 -7.871040 -1.672680 39.081100 -0.000007 -0.000012 -0.126570 0.308102 22.333300 40.985400 -0.000006 -0.000013 -1.066340 6.035410 -65.801600 11.754300 -0.000000 0.000003 -0.000048 -0.000547 -16.598800 -2.192510 6.469440 -0.000001 -179.932000 15.403600 -179.035000 -39.081100 -0.002282 -0.040193 -0.068381 0.199387 19.779400 -40.985400 0.000008 0.000006 3.906810 7.429700 -66.486000 -11.754300 -0.000006 -0.000006 -0.008671 -0.093421 -20.378000
